<svg height="800" width="800" xmlns="http://www.w3.org/2000/svg" viewBox="0 0 512 512" xml:space="preserve"><path d="m497.938 430.063-112-112c-.367-.367-.805-.613-1.18-.965C404.438 285.332 416 248.035 416 208 416 93.313 322.695 0 208 0S0 93.313 0 208s93.305 208 208 208c40.035 0 77.332-11.563 109.098-31.242.354.375.598.813.965 1.18l112 112C439.43 507.313 451.719 512 464 512c12.281 0 24.57-4.688 33.938-14.063 18.75-18.734 18.75-49.14 0-67.874zM64 208c0-79.406 64.602-144 144-144s144 64.594 144 144-64.602 144-144 144S64 287.406 64 208z"/><path d="M272 176H144c-17.672 0-32 14.328-32 32s14.328 32 32 32h128c17.672 0 32-14.328 32-32s-14.328-32-32-32z"/></svg>