<svg height="800" width="800" xmlns="http://www.w3.org/2000/svg" viewBox="0 0 512 512" xml:space="preserve"><path d="m497.938 430.063-112-112c-.313-.313-.637-.607-.955-.909C404.636 285.403 416 248.006 416 208 416 93.313 322.695 0 208 0S0 93.313 0 208s93.305 208 208 208c40.007 0 77.404-11.364 109.154-31.018.302.319.596.643.909.955l112 112C439.43 507.313 451.719 512 464 512c12.281 0 24.57-4.688 33.938-14.063 18.75-18.734 18.75-49.14 0-67.874zM64 208c0-79.406 64.602-144 144-144s144 64.594 144 144-64.602 144-144 144S64 287.406 64 208z"/><path d="M272 176h-32v-32c0-17.672-14.328-32-32-32s-32 14.328-32 32v32h-32c-17.672 0-32 14.328-32 32s14.328 32 32 32h32v32c0 17.672 14.328 32 32 32s32-14.328 32-32v-32h32c17.672 0 32-14.328 32-32s-14.328-32-32-32z"/></svg>